<?xml version="1.0" encoding="utf-8"?>
<!-- Generator: Adobe Illustrator 18.1.1, SVG Export Plug-In . SVG Version: 6.00 Build 0)  -->
<!DOCTYPE svg PUBLIC "-//W3C//DTD SVG 1.1//EN" "http://www.w3.org/Graphics/SVG/1.1/DTD/svg11.dtd">
<svg version="1.1" id="Isolation_Mode" xmlns="http://www.w3.org/2000/svg" xmlns:xlink="http://www.w3.org/1999/xlink" x="0px"
	 y="0px" viewBox="-863.5 577.2 214 61.7" enable-background="new -863.5 577.2 214 61.7" xml:space="preserve">
<path fill="#FFFFFF" d="M-831.9,590.7c3.7,0,6.7-2.9,6.7-6.7c0-3.7-2.9-6.9-6.7-6.9s-6.7,2.9-6.7,6.7
	C-838.6,587.6-835.6,590.7-831.9,590.7"/>
<path fill="#FFFFFF" d="M-839,612.5c-0.2-6.5-6.7-7.9-12.2-7.9c-5.1,0-11.8,1.6-11.8,8c0,4.3,2.9,6.7,10.2,7.9
	c4.5,0.8,5.3,1.2,5.3,2.6c0,1.4-2,2-3.1,2s-2.2-0.2-2.6-0.8c-0.8-0.6-1.2-1.4-1.2-2.2h-9.2c0.2,6.5,6.7,8.8,12.6,8.8
	c6.1,0,12.8-2,12.8-8.8c0-4.1-2.7-5.9-5.9-7.1c-3.1-1-6.9-1.2-8.4-2c-0.6-0.2-1.2-0.4-1.2-1.2c0-1.6,1.6-2,2.9-2
	c0.8,0,1.6,0.2,2.2,0.8c0.6,0.4,1,1,1.2,2h8.4V612.5z"/>
<rect x="-836.6" y="605.3" fill="#FFFFFF" width="9.6" height="24.9"/>
<path fill="#FFFFFF" d="M-807.7,616.6c0,2.7-0.4,6.1-3.9,6.1c-3.3,0-4.3-3.3-4.3-6.1s1.4-4.9,4.1-4.9
	C-809.1,611.5-807.7,613.9-807.7,616.6 M-798.5,627v-21.8h-9.6v2.9l0,0c-1.2-2.6-3.7-3.7-6.5-3.7c-7.1,0-10.8,5.5-10.8,12
	c0,6.7,3.3,12.2,10.8,12.2c2.7,0,5.1-1.2,6.7-3.5l0,0v2.4c0,2.2-0.6,5.7-3.7,5.7c-1.2,0-2.2-1-2.7-1.8c-0.2-0.2-0.4-0.6-0.6-0.8
	h-9.4c0.8,6.7,7.1,8.2,13.2,8.2C-799.9,639-798.5,632.1-798.5,627"/>
<path fill="#FFFFFF" d="M-796.6,630.4h9.6v-13.2c0-3.9,2.2-4.9,3.7-4.9c2.7,0,3.1,2,3.1,4.9v13.2h9.6v-17.1c0-5.7-4.1-8.4-8.6-8.4
	c-3.7,0-6.3,1.4-8,3.7l0,0v-3.1h-9.2v24.9H-796.6z"/>
<path fill="#FFFFFF" d="M-752.2,621.3c-0.2,2.6-1.8,3.9-3.9,3.9c-1.8,0-2.9-1.2-2.9-2.4c0-1.8,1.2-2.2,3.1-2.7
	c1.4-0.2,2.6-0.6,3.7-1.2V621.3z M-742,630.4c-1-1.6-1.2-3.7-1.2-5.5v-10.4c0-4.9,0-9.8-11.8-9.8c-5.9,0-12.6,1.2-13,8.2h8.8
	c0-1,0.6-2.6,3.5-2.6c1.6,0,3.1,0.6,3.1,2.4c0,1.6-1.4,2-2.6,2.2c-4.9,1-14.1,0.6-14.1,8.4c0,5.3,3.9,7.7,8.8,7.7
	c3.1,0,6.1-0.6,8-2.9l0,0c0,0.6,0,1.8,0.4,2.4C-751.8,630.4-742,630.4-742,630.4z"/>
<path fill="#FFFFFF" d="M-728,597.8h-9.6v7.7h-4.1v5.9h4.3v12c0,6.9,4.5,7.5,8.4,7.5c2,0,4.1-0.2,6.1-0.2v-7.3
	c-0.8,0.2-1.4,0.2-2.2,0.2c-2.4,0-2.9-1-2.9-3.3v-8.6h5.1v-5.9h-5.1V597.8z"/>
<path fill="#FFFFFF" d="M-695.2,605.3h-9.6v13.2c0,3.9-2.2,4.9-3.7,4.9c-2.7,0-3.1-2-3.1-4.9v-13.2h-9.6v17.1c0,5.7,4.1,8.4,8.6,8.4
	c3.7,0,6.3-1.4,8-3.7l0,0v3.1h9.2v-24.9H-695.2z"/>
<path fill="#FFFFFF" d="M-693.5,630.4h9.6v-9.8c0-5.3,2-7.7,5.7-7.7c2,0,2.7,0.2,3.7,0.6v-8.4c-1-0.2-1.8-0.4-2.7-0.4
	c-3.5,0-5.5,1.6-7.1,4.7l0,0v-3.9h-9.2C-693.5,605.4-693.5,630.4-693.5,630.4z"/>
<path fill="#FFFFFF" d="M-658.7,615.1h-9c0.4-2.7,2.2-4.1,4.9-4.1C-660.3,610.7-658.7,612.7-658.7,615.1 M-649.5,620
	c0-9.8-4.3-15.3-14.1-15.3c-7.9,0-13.2,5.9-13.2,13.2c0,8.2,6.1,13.2,13.9,13.2c5.7,0,11-2.6,13-7.9h-8.8c-0.8,1.2-2.6,1.8-3.9,1.8
	c-2.9,0-4.7-2-4.9-4.9C-667.6,620-649.5,620-649.5,620z"/>
</svg>
